<svg xmlns="http://www.w3.org/2000/svg" viewBox="0 0 40.49 40.7"><defs><style>.cls-1{fill:#fff;}</style></defs><title>instagram</title><g id="Layer_2" data-name="Layer 2"><g id="Layer_1-2" data-name="Layer 1"><path class="cls-1" d="M20.22,10.17a10.33,10.33,0,0,1,7.38,3.09H40.49V8h0a8,8,0,0,0-8-8H10.6V10.09H9V0H7.82V10.09H6.18V.21A8,8,0,0,0,5,.58v9.52H3.38V1.47A8,8,0,0,0,0,8v5.26H12.84A10.33,10.33,0,0,1,20.22,10.17Zm9.71-5.54a1.28,1.28,0,0,1,1.29-1.28h4.33a1.28,1.28,0,0,1,1.29,1.28V9.06a1.28,1.28,0,0,1-1.29,1.28H31.21a1.28,1.28,0,0,1-1.29-1.28Z"/><path class="cls-1" d="M25.47,14.53a8.06,8.06,0,0,0-2-1.27,8,8,0,0,0-6.58,0,8,8,0,0,0-2,1.27,8,8,0,1,0,10.51,0Zm-5.23,11.9a5.9,5.9,0,1,1,5.9-5.9A5.9,5.9,0,0,1,20.24,26.43Z"/><path class="cls-1" d="M8,40.7H32.48a8,8,0,0,0,8-8V14.53H28.66a10.36,10.36,0,1,1-16.89,0H0V32.69A8,8,0,0,0,8,40.7Z"/></g></g></svg>