<svg xmlns="http://www.w3.org/2000/svg" viewBox="0 0 40.7 33.08"><defs><style>.cls-1{fill:#fff;}</style></defs><title>twitter</title><g id="Layer_2" data-name="Layer 2"><g id="Layer_1-2" data-name="Layer 1"><path class="cls-1" d="M0,29.32a23.63,23.63,0,0,0,12.8,3.75C28.3,33.08,37.06,20,36.53,8.24A17,17,0,0,0,40.7,3.91a16.68,16.68,0,0,1-4.8,1.31A8.37,8.37,0,0,0,39.57.61a16.7,16.7,0,0,1-5.3,2A8.36,8.36,0,0,0,20,10.25,23.7,23.7,0,0,1,2.83,1.53,8.36,8.36,0,0,0,5.42,12.68a8.32,8.32,0,0,1-3.78-1,8.36,8.36,0,0,0,6.7,8.29,8.37,8.37,0,0,1-3.77.14,8.36,8.36,0,0,0,7.8,5.8A16.78,16.78,0,0,1,0,29.32Z"/></g></g></svg>