<svg xmlns="http://www.w3.org/2000/svg" viewBox="0 0 27.8 24.06"><defs><style>.cls-1{fill:#fff;}</style></defs><title>vimeo</title><g id="Layer_2" data-name="Layer 2"><g id="Layer_1-2" data-name="Layer 1"><path class="cls-1" d="M23.75,0Q18-.18,15.92,6.53A5.2,5.2,0,0,1,18,6.08q2.12,0,1.87,2.38A10.84,10.84,0,0,1,18,12.66q-1.75,2.76-2.62,2.76-1.13,0-2.06-4.25Q13,9.92,12.17,4.79,11.42,0,8.18.35,6.8.48,4.06,2.85,2.06,4.66,0,6.47L1.31,8.16A8.64,8.64,0,0,1,3.49,6.85q1.43,0,2.68,4.49l2.25,8.23q1.68,4.49,4.11,4.49,3.92,0,9.59-7.37Q27.6,9.63,27.79,5.57,28,.13,23.75,0Z"/></g></g></svg>