<svg xmlns="http://www.w3.org/2000/svg" viewBox="0 0 25.36 29.27"><defs><style>.cls-1{fill:#fff;}</style></defs><title>youtube</title><g id="Layer_2" data-name="Layer 2"><g id="Layer_1-2" data-name="Layer 1"><path class="cls-1" d="M16.38,11.41a2.45,2.45,0,0,0,1.79-1v.92h1.55V3H18.18V9.29c-.19.24-.61.62-.91.62s-.41-.23-.41-.56V3H15.3v7C15.3,10.75,15.55,11.41,16.38,11.41Z"/><path class="cls-1" d="M9.49,9.22a2,2,0,0,0,2.27,2.23A2.12,2.12,0,0,0,14,9.22V5.13a2.18,2.18,0,0,0-2.23-2.24A2.13,2.13,0,0,0,9.49,5.13Zm1.59-3.95c0-.46.21-.79.65-.79s.68.33.68.79V9.15c0,.45-.23.79-.65.79a.7.7,0,0,1-.68-.79Z"/><polygon class="cls-1" points="5.79 11.29 7.54 11.29 7.54 6.71 9.57 0 7.8 0 6.68 4.51 5.48 0 3.72 0 5.79 6.71 5.79 11.29"/><path class="cls-1" d="M21.81,13.19H3.55A3.55,3.55,0,0,0,0,16.74v9a3.55,3.55,0,0,0,3.55,3.55H21.81a3.55,3.55,0,0,0,3.55-3.55v-9A3.55,3.55,0,0,0,21.81,13.19ZM6,26.61H4.32V17.41H2.6V15.85H7.7v1.56H6Zm5.91,0H10.42v-.88a3.26,3.26,0,0,1-.85.74c-.79.46-1.89.45-1.89-1.16V18.67H9.16v6.08c0,.32.08.54.39.54s.69-.37.87-.59v-6h1.48ZM17.57,25c0,1-.37,1.74-1.35,1.74a1.69,1.69,0,0,1-1.4-.71v.61H13.33V15.85h1.49v3.46a1.77,1.77,0,0,1,1.31-.74c1.08,0,1.44.91,1.44,2ZM23,22.83H20.2v1.5c0,.6.05,1.11.64,1.11s.66-.42.66-1.11v-.55H23v.6c0,1.53-.66,2.45-2.21,2.45s-2.13-1-2.13-2.45V20.81a2.18,2.18,0,0,1,2.24-2.33c1.42,0,2.1.9,2.1,2.33Z"/><path class="cls-1" d="M20.86,19.86c-.55,0-.66.38-.66.93v.8h1.3v-.8C21.51,20.25,21.39,19.86,20.86,19.86Z"/><path class="cls-1" d="M15.13,19.91a1.08,1.08,0,0,0-.3.24V25.1a1.27,1.27,0,0,0,.35.28.62.62,0,0,0,.75-.08.9.9,0,0,0,.13-.55v-4.1A1,1,0,0,0,15.9,20,.61.61,0,0,0,15.13,19.91Z"/></g></g></svg>